# xmcd
#
# Track frame offsets:
#	150
#	10702
#	20953
#	30656
#	40300
#	49994
#	58427
#	66556
#	75951
#	87170
#	96981
#	107703
#	118264
#	127354
#	135964
#
# Disc length: 1932 seconds
#
# Revision: 0
# Processed by: cddbd v1.5.2PL0 Copyright (c) Steve Scherf et al.
# Submitted via: audiograbber 1.83.01
#
DISCID=d8078a0f
DTITLE=Clarence 'Frogman' Henry - The Best Of... [CD1]
DYEAR=2016
DGENRE=Blues
TTITLE0=Ain't Got No Home
TTITLE1=But I Do
TTITLE2=Little Suzy
TTITLE3=The Jealous Kind
TTITLE4=Lonely Street
TTITLE5=A Little Too Much
TTITLE6=On Bended Knees
TTITLE7=Steady Date
TTITLE8=Oh Mickey
TTITLE9=It Won't Be Long
TTITLE10=Dream Myself A Sweetheart
TTITLE11=Oh Why
TTITLE12=Lost Without You
TTITLE13=I'm A Country Boy
TTITLE14=Never Never
EXTD=
EXTT0=
EXTT1=
EXTT2=
EXTT3=
EXTT4=
EXTT5=
EXTT6=
EXTT7=
EXTT8=
EXTT9=
EXTT10=
EXTT11=
EXTT12=
EXTT13=
EXTT14=
PLAYORDER=
